<svg xmlns="http://www.w3.org/2000/svg" width="1080" height="1920" viewBox="0 0 1080 1920">
  <defs>
    <linearGradient id="g" x1="0" y1="0" x2="0" y2="1">
      <stop offset="0%" stop-color="hsl(288 34% 12%)"/>
      <stop offset="58%" stop-color="#0B0D0E"/>
      <stop offset="100%" stop-color="hsl(288 34% 7%)"/>
    </linearGradient>
    <filter id="n"><feTurbulence type="fractalNoise" baseFrequency="0.85" numOctaves="3" seed="260"/>
      <feColorMatrix type="saturate" values="0"/></filter>
  </defs>
  <rect width="1080" height="1920" fill="url(#g)"/>
  <circle cx="540" cy="760" r="180" fill="none" stroke="hsl(288 34% 62%)" stroke-width="1" opacity="0.160"/><circle cx="540" cy="760" r="295" fill="none" stroke="hsl(288 34% 62%)" stroke-width="1" opacity="0.135"/><circle cx="540" cy="760" r="410" fill="none" stroke="hsl(288 34% 62%)" stroke-width="1" opacity="0.110"/><circle cx="540" cy="760" r="525" fill="none" stroke="hsl(288 34% 62%)" stroke-width="1" opacity="0.085"/><circle cx="540" cy="760" r="640" fill="none" stroke="hsl(288 34% 62%)" stroke-width="1" opacity="0.060"/>
  <rect x="162" y="40" width="526" height="7" fill="hsl(288 34% 70%)" opacity="0.113"/><rect x="221" y="92" width="755" height="15" fill="hsl(288 34% 70%)" opacity="0.153"/><rect x="162" y="144" width="363" height="19" fill="hsl(288 34% 70%)" opacity="0.149"/><rect x="233" y="196" width="205" height="6" fill="hsl(288 34% 70%)" opacity="0.100"/><rect x="135" y="248" width="624" height="12" fill="hsl(288 34% 70%)" opacity="0.164"/><rect x="154" y="300" width="530" height="17" fill="hsl(288 34% 70%)" opacity="0.041"/><rect x="82" y="352" width="813" height="22" fill="hsl(288 34% 70%)" opacity="0.132"/><rect x="75" y="404" width="223" height="17" fill="hsl(288 34% 70%)" opacity="0.059"/><rect x="186" y="456" width="370" height="19" fill="hsl(288 34% 70%)" opacity="0.095"/><rect x="115" y="508" width="257" height="21" fill="hsl(288 34% 70%)" opacity="0.146"/><rect x="72" y="560" width="606" height="20" fill="hsl(288 34% 70%)" opacity="0.092"/><rect x="113" y="612" width="189" height="15" fill="hsl(288 34% 70%)" opacity="0.078"/><rect x="84" y="664" width="769" height="14" fill="hsl(288 34% 70%)" opacity="0.115"/><rect x="105" y="716" width="460" height="17" fill="hsl(288 34% 70%)" opacity="0.145"/><rect x="111" y="768" width="777" height="10" fill="hsl(288 34% 70%)" opacity="0.159"/><rect x="85" y="820" width="307" height="12" fill="hsl(288 34% 70%)" opacity="0.100"/><rect x="90" y="872" width="784" height="17" fill="hsl(288 34% 70%)" opacity="0.159"/><rect x="119" y="924" width="401" height="13" fill="hsl(288 34% 70%)" opacity="0.132"/><rect x="75" y="976" width="641" height="16" fill="hsl(288 34% 70%)" opacity="0.130"/><rect x="181" y="1028" width="233" height="21" fill="hsl(288 34% 70%)" opacity="0.108"/><rect x="192" y="1080" width="577" height="9" fill="hsl(288 34% 70%)" opacity="0.071"/><rect x="150" y="1132" width="318" height="8" fill="hsl(288 34% 70%)" opacity="0.139"/><rect x="147" y="1184" width="587" height="20" fill="hsl(288 34% 70%)" opacity="0.067"/><rect x="111" y="1236" width="206" height="12" fill="hsl(288 34% 70%)" opacity="0.156"/><rect x="127" y="1288" width="218" height="7" fill="hsl(288 34% 70%)" opacity="0.112"/><rect x="99" y="1340" width="590" height="13" fill="hsl(288 34% 70%)" opacity="0.049"/>
  <g opacity="0.5">
    <line x1="0" y1="640" x2="1080" y2="640" stroke="hsl(288 34% 60%)" stroke-width="1" opacity="0.18"/>
    <line x1="0" y1="1280" x2="1080" y2="1280" stroke="hsl(288 34% 60%)" stroke-width="1" opacity="0.18"/>
    <line x1="360" y1="0" x2="360" y2="1920" stroke="hsl(288 34% 60%)" stroke-width="1" opacity="0.12"/>
    <line x1="720" y1="0" x2="720" y2="1920" stroke="hsl(288 34% 60%)" stroke-width="1" opacity="0.12"/>
  </g>
  <rect width="1080" height="1920" filter="url(#n)" opacity="0.055"/>
  <text x="60" y="130" font-family="monospace" font-size="38" letter-spacing="10"
        fill="#EDE8E0" opacity="0.5">EXP_020</text>
  <text x="60" y="1860" font-family="monospace" font-size="30" letter-spacing="6"
        fill="#EDE8E0" opacity="0.28">GEN 5 · SPEEDRUN</text>
</svg>