<svg xmlns="http://www.w3.org/2000/svg" width="1080" height="1920" viewBox="0 0 1080 1920">
  <defs>
    <linearGradient id="g" x1="0" y1="0" x2="0" y2="1">
      <stop offset="0%" stop-color="hsl(234 8% 12%)"/>
      <stop offset="58%" stop-color="#0B0D0E"/>
      <stop offset="100%" stop-color="hsl(234 8% 7%)"/>
    </linearGradient>
    <filter id="n"><feTurbulence type="fractalNoise" baseFrequency="0.85" numOctaves="3" seed="26"/>
      <feColorMatrix type="saturate" values="0"/></filter>
  </defs>
  <rect width="1080" height="1920" fill="url(#g)"/>
  <circle cx="540" cy="760" r="180" fill="none" stroke="hsl(234 8% 62%)" stroke-width="1" opacity="0.160"/><circle cx="540" cy="760" r="295" fill="none" stroke="hsl(234 8% 62%)" stroke-width="1" opacity="0.135"/><circle cx="540" cy="760" r="410" fill="none" stroke="hsl(234 8% 62%)" stroke-width="1" opacity="0.110"/><circle cx="540" cy="760" r="525" fill="none" stroke="hsl(234 8% 62%)" stroke-width="1" opacity="0.085"/><circle cx="540" cy="760" r="640" fill="none" stroke="hsl(234 8% 62%)" stroke-width="1" opacity="0.060"/>
  <rect x="179" y="40" width="435" height="13" fill="hsl(234 8% 70%)" opacity="0.096"/><rect x="181" y="92" width="316" height="16" fill="hsl(234 8% 70%)" opacity="0.122"/><rect x="88" y="144" width="739" height="11" fill="hsl(234 8% 70%)" opacity="0.158"/><rect x="185" y="196" width="816" height="19" fill="hsl(234 8% 70%)" opacity="0.154"/><rect x="174" y="248" width="545" height="14" fill="hsl(234 8% 70%)" opacity="0.142"/><rect x="222" y="300" width="728" height="7" fill="hsl(234 8% 70%)" opacity="0.042"/><rect x="214" y="352" width="184" height="9" fill="hsl(234 8% 70%)" opacity="0.145"/><rect x="202" y="404" width="786" height="18" fill="hsl(234 8% 70%)" opacity="0.109"/><rect x="209" y="456" width="811" height="21" fill="hsl(234 8% 70%)" opacity="0.046"/><rect x="134" y="508" width="654" height="17" fill="hsl(234 8% 70%)" opacity="0.138"/><rect x="95" y="560" width="361" height="7" fill="hsl(234 8% 70%)" opacity="0.107"/><rect x="156" y="612" width="622" height="15" fill="hsl(234 8% 70%)" opacity="0.080"/><rect x="207" y="664" width="745" height="11" fill="hsl(234 8% 70%)" opacity="0.067"/><rect x="143" y="716" width="769" height="8" fill="hsl(234 8% 70%)" opacity="0.128"/><rect x="103" y="768" width="438" height="15" fill="hsl(234 8% 70%)" opacity="0.074"/><rect x="179" y="820" width="249" height="7" fill="hsl(234 8% 70%)" opacity="0.047"/><rect x="238" y="872" width="365" height="18" fill="hsl(234 8% 70%)" opacity="0.149"/><rect x="235" y="924" width="258" height="12" fill="hsl(234 8% 70%)" opacity="0.127"/><rect x="129" y="976" width="251" height="20" fill="hsl(234 8% 70%)" opacity="0.080"/><rect x="83" y="1028" width="715" height="10" fill="hsl(234 8% 70%)" opacity="0.042"/><rect x="125" y="1080" width="501" height="10" fill="hsl(234 8% 70%)" opacity="0.074"/><rect x="218" y="1132" width="698" height="21" fill="hsl(234 8% 70%)" opacity="0.051"/><rect x="111" y="1184" width="605" height="18" fill="hsl(234 8% 70%)" opacity="0.154"/><rect x="173" y="1236" width="798" height="20" fill="hsl(234 8% 70%)" opacity="0.126"/><rect x="217" y="1288" width="363" height="17" fill="hsl(234 8% 70%)" opacity="0.067"/><rect x="85" y="1340" width="134" height="20" fill="hsl(234 8% 70%)" opacity="0.049"/>
  <g opacity="0.5">
    <line x1="0" y1="640" x2="1080" y2="640" stroke="hsl(234 8% 60%)" stroke-width="1" opacity="0.18"/>
    <line x1="0" y1="1280" x2="1080" y2="1280" stroke="hsl(234 8% 60%)" stroke-width="1" opacity="0.18"/>
    <line x1="360" y1="0" x2="360" y2="1920" stroke="hsl(234 8% 60%)" stroke-width="1" opacity="0.12"/>
    <line x1="720" y1="0" x2="720" y2="1920" stroke="hsl(234 8% 60%)" stroke-width="1" opacity="0.12"/>
  </g>
  <rect width="1080" height="1920" filter="url(#n)" opacity="0.055"/>
  <text x="60" y="130" font-family="monospace" font-size="38" letter-spacing="10"
        fill="#EDE8E0" opacity="0.5">EXP_002</text>
  <text x="60" y="1860" font-family="monospace" font-size="30" letter-spacing="6"
        fill="#EDE8E0" opacity="0.28">GEN 1 · POV</text>
</svg>